<svg width="800" height="800" viewBox="0 0 800 800" fill="none" xmlns="http://www.w3.org/2000/svg">
  <rect width="800" height="800" fill="#F3F4F6"/>
  <g opacity="0.3">
    <path d="M400 250C380.67 250 365 265.67 365 285V365L400 385L435 365V285C435 265.67 419.33 250 400 250Z" fill="#9CA3AF"/>
    <path d="M400 450C423.748 450 443 430.748 443 407C443 383.252 423.748 364 400 364C376.252 364 357 383.252 357 407C357 430.748 376.252 450 400 450Z" fill="#9CA3AF"/>
    <circle cx="400" cy="480" r="15" fill="#9CA3AF"/>
    <rect x="365" y="500" width="70" height="50" rx="5" fill="#9CA3AF"/>
  </g>
  <text x="400" y="620" font-family="Arial, sans-serif" font-size="24" fill="#9CA3AF" text-anchor="middle">NO IMAGE</text>
</svg>
